<svg width="35" height="35" viewBox="0 0 321 256" fill="none" xmlns="http://www.w3.org/2000/svg">
<path d="M293.5 146L160 35C118 69 32.3 138.8 25.5 146C18.7 153.2 14 149 12.5 146L2.49997 133.5C-2.70003 127.9 2.66663 122.833 5.99997 121C47.1666 87.6667 132.1 18.3 142.5 7.49999C152.9 -3.30001 167.167 0.999987 173 4.49999L223.5 47V7.49999C223.5 1.89999 228.5 0.83332 231 0.999987H266C272 0.999987 274.167 5.33332 274.5 7.49999V88.5C285.5 98.1666 309.1 118.6 315.5 123C321.9 127.4 320.5 131.833 319 133.5L307.5 146C303.5 153.2 296.5 149 293.5 146Z" fill="#ffffff"/>
<path d="M274.5 146L160 52.5L45.5 146V246.5C49.1 254.1 56.3333 255.667 59.5 255.5H135.5V179.5H185V255.5C207.5 255.667 254.5 255.9 262.5 255.5C270.5 255.1 273.833 249.333 274.5 246.5V146Z" fill="#ffffff"/>
</svg>
