<svg width="24" height="24" viewBox="0 0 270 320" fill="none" xmlns="http://www.w3.org/2000/svg">
<path d="M218.5 320H50.5C14.4999 317.2 2.49994 287.5 0.999959 273C0.333292 264.167 0.499959 240.3 6.49996 215.5C12.5 190.7 26 173.167 32 167.5C51.6 153.5 69.8333 153.667 76.5 155.5C86.9 163.9 102.833 171.333 109.5 174C127.5 183.6 151.667 178 161.5 174C171.1 168.8 187.167 159.5 194 155.5C206 153.1 215.333 156.5 218.5 158.5C251 165.5 269.5 211 269.5 263.5C269.5 305.5 235.5 318.667 218.5 320Z" fill="#D9D9D9"/>
<circle cx="133" cy="77" r="77" fill="#D9D9D9"/>
</svg>
